# xmcd
#
# Track frame offsets:
#	150
#	11323
#	28468
#	42566
#	58919
#	74365
#	90086
#	103072
#	123695
#	142011
#	156687
#	176103
#	192563
#	206291
#	228952
#
# Disc length: 3227 seconds
#
# Revision: 0
# Processed by: cddbd v1.4PL0 Copyright (c) Steve Scherf et al.
# Submitted via: audiograbber 1.81.03
#
DISCID=e00c990f
DTITLE=Victor Rathnaayaka (Victor Rathnayake) - Samaru liya vael
DYEAR=2000
DGENRE=Vocal
TTITLE0=Intorduction
TTITLE1=Moohen mulaa velaa
TTITLE2=Sihina sathak
TTITLE3=Kurullanta gii
TTITLE4=Dhaivayoogaya
TTITLE5=Sitha mithuru sulanga
TTITLE6=Sandhata ahasa
TTITLE7=Thani tharuvee
TTITLE8=Nangiyee malliyee
TTITLE9=Api okkoma rajavaru
TTITLE10=Aadharayee ulpatha ammaa
TTITLE11=Paavee valaa
TTITLE12=Dhevuram veheree
TTITLE13=Thotupola ayinee
TTITLE14=Sandha hiru tharu
EXTD=
EXTT0=
EXTT1=
EXTT2=
EXTT3=
EXTT4=
EXTT5=
EXTT6=
EXTT7=
EXTT8=
EXTT9=
EXTT10=
EXTT11=
EXTT12=
EXTT13=
EXTT14=
PLAYORDER=
